<svg xmlns="http://www.w3.org/2000/svg" viewBox="0 0 50 50"><defs><style>.cls-1{fill:#ffab00;}.cls-2{fill:#fff;}</style></defs><title>do-icon</title><g id="Layer_2" data-name="Layer 2"><g id="Layer_1-2" data-name="Layer 1"><circle class="cls-1" cx="25" cy="25" r="25"/><path class="cls-2" d="M25,40.31l-5.28-3.7a17.31,17.31,0,0,1-7.34-14.14V15.19l2.36-.45A20.08,20.08,0,0,0,22.5,11.5l2.59-1.81,2.25,1.62A19.86,19.86,0,0,0,35,14.69l2.6.53v7.42a17,17,0,0,1-7.2,13.87ZM20.18,36,25,39.34l5-3.48a16.17,16.17,0,0,0,6.87-13.22V15.87l-2-.41a20.48,20.48,0,0,1-8-3.51l-1.79-1.29L23,12.15a20.74,20.74,0,0,1-8.06,3.37l-1.72.33v6.62a16.52,16.52,0,0,0,7,13.49Z"/><path class="cls-2" d="M25,37.41l-3.91-2.75a14.93,14.93,0,0,1-6.33-12.19V17.15l.43-.08a22.2,22.2,0,0,0,8.67-3.62l1.21-.85.87.64A22.22,22.22,0,0,0,34.54,17l.7.14v5.48a14.57,14.57,0,0,1-6.19,11.92Zm-9.45-19.6v4.66a14.11,14.11,0,0,0,6,11.54L25,36.44l3.59-2.53a13.78,13.78,0,0,0,5.86-11.27V17.81l-.07,0a23,23,0,0,1-8.9-3.91l-.42-.3-.75.52A23.06,23.06,0,0,1,15.55,17.81ZM28.82,34.24h0Z"/><path class="cls-2" d="M23.36,30.08,19,25.71l2.52-2.51,1.85,1.86,5.13-5.13L31,22.44Zm-3.24-4.37L23.36,29l6.52-6.52-1.39-1.39-5.13,5.13-1.85-1.86Z"/></g></g></svg>